<svg id="Layer_1" data-name="Layer 1" xmlns="http://www.w3.org/2000/svg" viewBox="0 0 158.19 90"><defs><style>.cls-1{fill:#003b64;}.cls-2{fill:#a50050;}.cls-3{fill:#009cde;}.cls-4{fill:#c4d600;}</style></defs><path class="cls-1" d="M6.31,79.75a3.3,3.3,0,0,1-.88.14c-.44,0-.91,0-1.44,0a7,7,0,0,1-1.51-.17,3,3,0,0,1-1.27-.6A2.94,2.94,0,0,1,.33,78,4.76,4.76,0,0,1,0,76.09V46.78a3.26,3.26,0,0,1,.75-.12,12.81,12.81,0,0,1,1.39-.07,8.26,8.26,0,0,1,1.49.14A3.88,3.88,0,0,1,5,47.26a2.92,2.92,0,0,1,1,1.12,4.15,4.15,0,0,1,.37,1.87Z"/><path class="cls-1" d="M30.38,68.39a16.74,16.74,0,0,1-.59,4.45,10,10,0,0,1-1.9,3.76,9.44,9.44,0,0,1-3.41,2.59,13.71,13.71,0,0,1-10.08,0A9.08,9.08,0,0,1,11,76.67,10.49,10.49,0,0,1,9.13,73a16.16,16.16,0,0,1-.6-4.43,14.11,14.11,0,0,1,.7-4.47,10.74,10.74,0,0,1,2.06-3.71,9.56,9.56,0,0,1,3.45-2.53,11.8,11.8,0,0,1,4.87-.93,12,12,0,0,1,5,.93,8.84,8.84,0,0,1,3.34,2.5A10.13,10.13,0,0,1,29.79,64,16.45,16.45,0,0,1,30.38,68.39Zm-6.36,0A17.14,17.14,0,0,0,23.84,66a6.54,6.54,0,0,0-.7-2.15,4.2,4.2,0,0,0-1.39-1.51,4.56,4.56,0,0,0-4.48,0,4.46,4.46,0,0,0-1.43,1.56A7.18,7.18,0,0,0,15.07,66a13.57,13.57,0,0,0-.23,2.46A15.09,15.09,0,0,0,15.05,71a7.49,7.49,0,0,0,.72,2.25,4.15,4.15,0,0,0,1.41,1.59,3.9,3.9,0,0,0,2.25.61,4.06,4.06,0,0,0,2.3-.61,4.15,4.15,0,0,0,1.41-1.59,7.18,7.18,0,0,0,.7-2.25A18.26,18.26,0,0,0,24,68.43Z"/><path class="cls-1" d="M52.77,77.76a21.46,21.46,0,0,1-.53,5,9.53,9.53,0,0,1-1.86,3.87,8.49,8.49,0,0,1-3.5,2.5,14.57,14.57,0,0,1-5.47.88,21.3,21.3,0,0,1-4.57-.41,10.81,10.81,0,0,1-2.85-1,2.58,2.58,0,0,1-1.18-1.06,2.67,2.67,0,0,1-.26-1.07,3.54,3.54,0,0,1,.61-1.74,17.88,17.88,0,0,1,1.2-1.78,7.17,7.17,0,0,0,.91.74,9.37,9.37,0,0,0,1.41.81,10.52,10.52,0,0,0,1.88.67,8.45,8.45,0,0,0,2.29.28,7.59,7.59,0,0,0,2.95-.48,4.15,4.15,0,0,0,1.78-1.4,5.53,5.53,0,0,0,.91-2.2,15.54,15.54,0,0,0,.25-3v-.83A5.87,5.87,0,0,1,44.68,79a8.42,8.42,0,0,1-3.64.67,10.12,10.12,0,0,1-3.32-.53,7.13,7.13,0,0,1-2.85-1.83,9.23,9.23,0,0,1-2-3.41,16.18,16.18,0,0,1-.75-5.26,17,17,0,0,1,.77-5.43,10.39,10.39,0,0,1,2-3.64,7.58,7.58,0,0,1,2.92-2,9.67,9.67,0,0,1,3.45-.63,7.41,7.41,0,0,1,3.41.7,5.7,5.7,0,0,1,2.07,1.77,2.52,2.52,0,0,1,1.39-1.54,5.66,5.66,0,0,1,2.37-.46l.78,0,.75.07.7.1ZM38.63,68.25a11.25,11.25,0,0,0,1,5.12,3.74,3.74,0,0,0,3.67,1.88,4.49,4.49,0,0,0,2.55-.63A1.89,1.89,0,0,0,46.74,73V63.06a5.88,5.88,0,0,0-1.27-.88,4.12,4.12,0,0,0-2.11-.51c-3.15,0-4.73,2.19-4.73,6.58Z"/><path class="cls-1" d="M82.35,60.09a4,4,0,0,1-.45,1.65,17.9,17.9,0,0,1-1,1.78,11.27,11.27,0,0,0-1.11-.74A12.16,12.16,0,0,0,78.31,62a13.42,13.42,0,0,0-1.76-.58,7.42,7.42,0,0,0-1.81-.23,7.59,7.59,0,0,0-1.07.07,3.17,3.17,0,0,0-1,.28,2,2,0,0,0-.74.6,1.69,1.69,0,0,0-.3,1c0,1,1.13,1.83,3.39,2.32a25.84,25.84,0,0,1,2.75.72,8.73,8.73,0,0,1,2.46,1.23,5.77,5.77,0,0,1,2.44,5A7.37,7.37,0,0,1,82,75.76a7,7,0,0,1-2,2.41,9,9,0,0,1-3,1.49,12.73,12.73,0,0,1-3.68.51,16.87,16.87,0,0,1-3.48-.3,11.77,11.77,0,0,1-2.32-.72,8,8,0,0,1-1.42-.81,1.67,1.67,0,0,1-.76-1.46,3.38,3.38,0,0,1,.46-1.64c.31-.58.67-1.17,1.07-1.79a8.37,8.37,0,0,0,1,.76,9.84,9.84,0,0,0,1.44.75,11.46,11.46,0,0,0,1.74.58,8.1,8.1,0,0,0,1.9.23,8.66,8.66,0,0,0,1.25-.09,3.25,3.25,0,0,0,1.14-.37,2.53,2.53,0,0,0,.81-.75,2,2,0,0,0,.32-1.2,2,2,0,0,0-1-1.92,11,11,0,0,0-3.12-1,17.12,17.12,0,0,1-2.6-.75,8.2,8.2,0,0,1-2.23-1.22A5.48,5.48,0,0,1,66,66.54a6.25,6.25,0,0,1-.58-2.83,5.55,5.55,0,0,1,.74-2.92,6.91,6.91,0,0,1,2-2.13A8.71,8.71,0,0,1,71,57.34a13,13,0,0,1,3.39-.45,17.48,17.48,0,0,1,3.31.28,11.66,11.66,0,0,1,2.53.74C81.57,58.47,82.29,59.19,82.35,60.09Z"/><path class="cls-1" d="M96.42,75.48a6.8,6.8,0,0,0,1.85-.23,7.09,7.09,0,0,0,1.49-.58,6.5,6.5,0,0,0,1.11-.74,5.62,5.62,0,0,0,.7-.68,4.34,4.34,0,0,1,.56.72,8,8,0,0,1,.88,1.88,3.36,3.36,0,0,1,.14.84,2.34,2.34,0,0,1-.19.9,2.46,2.46,0,0,1-.79.91,9.6,9.6,0,0,1-2.5,1.2,12.84,12.84,0,0,1-4.13.56,15.83,15.83,0,0,1-3.62-.47A9.43,9.43,0,0,1,88.31,78a9.84,9.84,0,0,1-2.78-3.59,13.8,13.8,0,0,1-1.12-6,12.41,12.41,0,0,1,1.16-5.75,10.23,10.23,0,0,1,2.88-3.52,10,10,0,0,1,3.64-1.79,14.29,14.29,0,0,1,3.45-.49,14.13,14.13,0,0,1,3.55.42,9.15,9.15,0,0,1,2.66,1.11A4.23,4.23,0,0,1,103,59.48a2.09,2.09,0,0,1,.35,1.21,4.25,4.25,0,0,1-.41,1.6A8,8,0,0,1,101.85,64a8.68,8.68,0,0,0-2.18-1.58,6.6,6.6,0,0,0-3.2-.79,4.93,4.93,0,0,0-4.36,1.88,8.23,8.23,0,0,0-1.3,4.8,13,13,0,0,0,.28,2.78,6.14,6.14,0,0,0,1,2.27,4.67,4.67,0,0,0,1.74,1.53A5.61,5.61,0,0,0,96.42,75.48Z"/><path class="cls-1" d="M125.59,68.39a17.15,17.15,0,0,1-.58,4.45,10.13,10.13,0,0,1-1.9,3.76,9.53,9.53,0,0,1-3.41,2.59,13.74,13.74,0,0,1-10.09,0,9.25,9.25,0,0,1-3.36-2.55,10.3,10.3,0,0,1-1.9-3.71,15.78,15.78,0,0,1-.6-4.43,14.11,14.11,0,0,1,.69-4.47,10.77,10.77,0,0,1,2.07-3.71A9.4,9.4,0,0,1,110,57.82a11.8,11.8,0,0,1,4.87-.93,12,12,0,0,1,5,.93,8.76,8.76,0,0,1,3.34,2.5A10,10,0,0,1,125,64,16.44,16.44,0,0,1,125.59,68.39Zm-6.35,0a17.15,17.15,0,0,0-.19-2.48,6.52,6.52,0,0,0-.69-2.15,4.31,4.31,0,0,0-1.4-1.51,4.54,4.54,0,0,0-4.47,0,4.49,4.49,0,0,0-1.44,1.56,6.9,6.9,0,0,0-.76,2.15,12.74,12.74,0,0,0-.24,2.46,15.09,15.09,0,0,0,.21,2.51,7.78,7.78,0,0,0,.72,2.25,4.18,4.18,0,0,0,1.42,1.59,3.88,3.88,0,0,0,2.25.61,4,4,0,0,0,2.29-.61,4.26,4.26,0,0,0,1.42-1.59,7.43,7.43,0,0,0,.69-2.25A16.87,16.87,0,0,0,119.24,68.43Z"/><path class="cls-1" d="M149.19,68.39a16.73,16.73,0,0,1-.58,4.45,10.13,10.13,0,0,1-1.9,3.76,9.44,9.44,0,0,1-3.41,2.59,13.74,13.74,0,0,1-10.09,0,9.25,9.25,0,0,1-3.36-2.55A10.47,10.47,0,0,1,128,73a16.16,16.16,0,0,1-.6-4.43,14.11,14.11,0,0,1,.69-4.47,10.77,10.77,0,0,1,2.07-3.71,9.48,9.48,0,0,1,3.45-2.53,11.8,11.8,0,0,1,4.87-.93,12,12,0,0,1,5,.93,8.94,8.94,0,0,1,3.34,2.5A10.13,10.13,0,0,1,148.61,64,16.44,16.44,0,0,1,149.19,68.39Zm-6.35,0a15.84,15.84,0,0,0-.19-2.48A6.52,6.52,0,0,0,142,63.8a4.22,4.22,0,0,0-1.4-1.51,4.54,4.54,0,0,0-4.47,0,4.49,4.49,0,0,0-1.44,1.56,6.9,6.9,0,0,0-.76,2.15,12,12,0,0,0-.23,2.46,16.23,16.23,0,0,0,.2,2.51,8.1,8.1,0,0,0,.72,2.25A4.18,4.18,0,0,0,136,74.83a3.88,3.88,0,0,0,2.25.61,4,4,0,0,0,2.29-.61A4.26,4.26,0,0,0,142,73.24a7.43,7.43,0,0,0,.69-2.25,16.87,16.87,0,0,0,.19-2.56Z"/><path class="cls-1" d="M158.19,79.75a3.36,3.36,0,0,1-.88.14c-.44,0-.92,0-1.44,0a7,7,0,0,1-1.51-.17,3,3,0,0,1-1.27-.6,2.94,2.94,0,0,1-.88-1.18,4.76,4.76,0,0,1-.33-1.9V46.78a3.17,3.17,0,0,1,.75-.12,12.81,12.81,0,0,1,1.39-.07,8.15,8.15,0,0,1,1.48.14,3.73,3.73,0,0,1,1.34.53,2.86,2.86,0,0,1,1,1.12,4.15,4.15,0,0,1,.37,1.87Z"/><path class="cls-1" d="M62.7,79.75a3,3,0,0,1-.84.14c-.43,0-.9,0-1.39,0a5.14,5.14,0,0,1-2.94-.76,3.48,3.48,0,0,1-1.14-3.08V57.54a4.57,4.57,0,0,1,.74-.12,13.07,13.07,0,0,1,1.39-.07,8.26,8.26,0,0,1,1.49.14,3.8,3.8,0,0,1,1.34.53,2.84,2.84,0,0,1,1,1.12A4,4,0,0,1,62.69,61Z"/><path class="cls-1" d="M62.32,48.7a2.89,2.89,0,0,0-1-1.11A3.88,3.88,0,0,0,60,47.06a8.26,8.26,0,0,0-1.49-.14,12.81,12.81,0,0,0-1.39.07,3.26,3.26,0,0,0-.75.12V53c2.52-.31,5.15-.3,6.1,1.23.11.17.2.24.2-.08V50.58A4.07,4.07,0,0,0,62.32,48.7Z"/><path class="cls-2" d="M0,0H14.84V14.25a11.18,11.18,0,0,1-.77,4.47A7.07,7.07,0,0,1,12,21.51a7.28,7.28,0,0,1-3,1.41,16.2,16.2,0,0,1-3.54.39c-1.24,0-2.37,0-3.38-.11A8.14,8.14,0,0,1,0,22.87Z"/><path class="cls-3" d="M61.85,22.87a8.06,8.06,0,0,1-2.07.33c-1,.07-2.15.11-3.38.11a17,17,0,0,1-3.55-.38,7.49,7.49,0,0,1-3-1.42,7.07,7.07,0,0,1-2.07-2.79A11.35,11.35,0,0,1,47,14.25V0H61.85Z"/><path class="cls-4" d="M23.61,0V16.86a6.44,6.44,0,0,0,6.45,6.44h1.68a6.44,6.44,0,0,0,6.45-6.44h0V0Z"/></svg>